<?xml version="1.0" encoding="UTF-8" standalone="no"?><svg xmlns="http://www.w3.org/2000/svg" xmlns:xlink="http://www.w3.org/1999/xlink" contentScriptType="application/ecmascript" contentStyleType="text/css" height="932px" preserveAspectRatio="none" style="width:970px;height:932px;" version="1.1" viewBox="0 0 970 932" width="970px" zoomAndPan="magnify"><defs><filter height="300%" id="fmqcdrjx3f80e" width="300%" x="-1" y="-1"><feGaussianBlur result="blurOut" stdDeviation="2.0"/><feColorMatrix in="blurOut" result="blurOut2" type="matrix" values="0 0 0 0 0 0 0 0 0 0 0 0 0 0 0 0 0 0 .4 0"/><feOffset dx="4.0" dy="4.0" in="blurOut2" result="blurOut3"/><feBlend in="SourceGraphic" in2="blurOut3" mode="normal"/></filter></defs><g><!--cluster std--><rect fill="#FFFFFF" filter="url(#fmqcdrjx3f80e)" height="67" style="stroke: #000000; stroke-width: 1.5;" width="154" x="805" y="714"/><path d="M840,715 L840,723.2969 L830,733.2969 L805,733.2969 " fill="none" style="stroke: #000000; stroke-width: 1.5;"/><text fill="#000000" font-family="sans-serif" font-size="14" font-weight="bold" lengthAdjust="spacingAndGlyphs" textLength="25" x="808" y="727.9951">std</text><!--cluster fits--><rect fill="#FFFFFF" filter="url(#fmqcdrjx3f80e)" height="905" style="stroke: #000000; stroke-width: 1.5;" width="783" x="14" y="16"/><path d="M49,17 L49,25.2969 L39,35.2969 L14,35.2969 " fill="none" style="stroke: #000000; stroke-width: 1.5;"/><text fill="#000000" font-family="sans-serif" font-size="14" font-weight="bold" lengthAdjust="spacingAndGlyphs" textLength="25" x="17" y="29.9951">fits</text><!--cluster detail--><rect fill="#FFFFFF" filter="url(#fmqcdrjx3f80e)" height="101" style="stroke: #000000; stroke-width: 1.5;" width="228" x="253" y="812"/><path d="M306,813 L306,821.2969 L296,831.2969 L253,831.2969 " fill="none" style="stroke: #000000; stroke-width: 1.5;"/><text fill="#000000" font-family="sans-serif" font-size="14" font-weight="bold" lengthAdjust="spacingAndGlyphs" textLength="43" x="256" y="825.9951">detail</text><!--class invalid_argument--><rect fill="#FEFECE" filter="url(#fmqcdrjx3f80e)" height="32" id="invalid_argument" style="stroke: #A80036; stroke-width: 1.5;" width="138" x="813" y="741"/><ellipse cx="828" cy="757" fill="#ADD1B2" rx="11" ry="11" style="stroke: #A80036; stroke-width: 1.0;"/><path d="M830.9688,762.6406 Q830.3906,762.9375 829.75,763.0781 Q829.1094,763.2344 828.4063,763.2344 Q825.9063,763.2344 824.5781,761.5938 Q823.2656,759.9375 823.2656,756.8125 Q823.2656,753.6875 824.5781,752.0313 Q825.9063,750.375 828.4063,750.375 Q829.1094,750.375 829.75,750.5313 Q830.4063,750.6875 830.9688,750.9844 L830.9688,753.7031 Q830.3438,753.125 829.75,752.8594 Q829.1563,752.5781 828.5313,752.5781 Q827.1875,752.5781 826.5,753.6563 Q825.8125,754.7188 825.8125,756.8125 Q825.8125,758.9063 826.5,759.9844 Q827.1875,761.0469 828.5313,761.0469 Q829.1563,761.0469 829.75,760.7813 Q830.3438,760.5 830.9688,759.9219 L830.9688,762.6406 Z "/><text fill="#000000" font-family="sans-serif" font-size="12" lengthAdjust="spacingAndGlyphs" textLength="106" x="842" y="761.1543">invalid_argument</text><!--class header_entry--><rect fill="#FEFECE" filter="url(#fmqcdrjx3f80e)" height="361.7031" id="header_entry" style="stroke: #A80036; stroke-width: 1.5;" width="354" x="228" y="43"/><ellipse cx="359.25" cy="59" fill="#ADD1B2" rx="11" ry="11" style="stroke: #A80036; stroke-width: 1.0;"/><path d="M362.2188,64.6406 Q361.6406,64.9375 361,65.0781 Q360.3594,65.2344 359.6563,65.2344 Q357.1563,65.2344 355.8281,63.5938 Q354.5156,61.9375 354.5156,58.8125 Q354.5156,55.6875 355.8281,54.0313 Q357.1563,52.375 359.6563,52.375 Q360.3594,52.375 361,52.5313 Q361.6563,52.6875 362.2188,52.9844 L362.2188,55.7031 Q361.5938,55.125 361,54.8594 Q360.4063,54.5781 359.7813,54.5781 Q358.4375,54.5781 357.75,55.6563 Q357.0625,56.7188 357.0625,58.8125 Q357.0625,60.9063 357.75,61.9844 Q358.4375,63.0469 359.7813,63.0469 Q360.4063,63.0469 361,62.7813 Q361.5938,62.5 362.2188,61.9219 L362.2188,64.6406 Z "/><text fill="#000000" font-family="sans-serif" font-size="12" lengthAdjust="spacingAndGlyphs" textLength="83" x="379.75" y="63.1543">header_entry</text><line style="stroke: #A80036; stroke-width: 1.5;" x1="229" x2="581" y1="75" y2="75"/><rect fill="none" height="6" style="stroke: #C82930; stroke-width: 1.0;" width="6" x="236" y="83.9023"/><text fill="#000000" font-family="sans-serif" font-size="11" lengthAdjust="spacingAndGlyphs" textLength="81" x="248" y="89.2104">m_key : string</text><rect fill="none" height="6" style="stroke: #C82930; stroke-width: 1.0;" width="6" x="236" y="96.707"/><text fill="#000000" font-family="sans-serif" font-size="11" lengthAdjust="spacingAndGlyphs" textLength="128" x="248" y="102.0151">m_value : variant[0..1]</text><rect fill="none" height="6" style="stroke: #C82930; stroke-width: 1.0;" width="6" x="236" y="109.5117"/><text fill="#000000" font-family="sans-serif" font-size="11" lengthAdjust="spacingAndGlyphs" textLength="141" x="248" y="114.8198">m_comment: string[0..1]</text><ellipse cx="239" cy="142.1211" fill="#84BE84" rx="3" ry="3" style="stroke: #038048; stroke-width: 1.0;"/><text fill="#000000" font-family="sans-serif" font-size="11" lengthAdjust="spacingAndGlyphs" textLength="151" x="248" y="144.4292">«constructor»(key : string)</text><ellipse cx="239" cy="154.9258" fill="#84BE84" rx="3" ry="3" style="stroke: #038048; stroke-width: 1.0;"/><text fill="#000000" font-family="sans-serif" font-size="11" lengthAdjust="spacingAndGlyphs" textLength="208" x="248" y="157.2339">«constructor»(key : string, value : T)</text><ellipse cx="239" cy="167.7305" fill="#84BE84" rx="3" ry="3" style="stroke: #038048; stroke-width: 1.0;"/><text fill="#000000" font-family="sans-serif" font-size="11" lengthAdjust="spacingAndGlyphs" textLength="314" x="248" y="170.0386">«constructor»(key : string, value : T, comment : string)</text><ellipse cx="239" cy="180.5352" fill="#84BE84" rx="3" ry="3" style="stroke: #038048; stroke-width: 1.0;"/><text fill="#000000" font-family="sans-serif" font-size="11" lengthAdjust="spacingAndGlyphs" textLength="215" x="248" y="182.8433">«assignment»(source : header_entry)</text><ellipse cx="239" cy="193.3398" fill="#84BE84" rx="3" ry="3" style="stroke: #038048; stroke-width: 1.0;"/><text fill="#000000" font-family="sans-serif" font-size="11" lengthAdjust="spacingAndGlyphs" textLength="155" x="248" y="195.6479">swap(other : header_entry)</text><line style="stroke: #A80036; stroke-width: 1.5;" x1="229" x2="353" y1="127.8164" y2="127.8164"/><text fill="#000000" font-family="sans-serif" font-size="11" lengthAdjust="spacingAndGlyphs" textLength="104" x="353" y="131.1245">Member Functions</text><line style="stroke: #A80036; stroke-width: 1.5;" x1="457" x2="581" y1="127.8164" y2="127.8164"/><line style="stroke: #A80036; stroke-width: 1.0; stroke-dasharray: 1.0,2.0;" x1="229" x2="581" y1="202.2422" y2="202.2422"/><ellipse cx="239" cy="214.1445" fill="#84BE84" rx="3" ry="3" style="stroke: #038048; stroke-width: 1.0;"/><text fill="#000000" font-family="sans-serif" font-size="11" lengthAdjust="spacingAndGlyphs" textLength="72" x="248" y="216.4526">key() : string</text><line style="stroke: #A80036; stroke-width: 1.0; stroke-dasharray: 1.0,2.0;" x1="229" x2="581" y1="223.0469" y2="223.0469"/><ellipse cx="239" cy="234.9492" fill="#84BE84" rx="3" ry="3" style="stroke: #038048; stroke-width: 1.0;"/><text fill="#000000" font-family="sans-serif" font-size="11" lengthAdjust="spacingAndGlyphs" textLength="135" x="248" y="237.2573">has_a_value() : boolean</text><ellipse cx="239" cy="247.7539" fill="#84BE84" rx="3" ry="3" style="stroke: #038048; stroke-width: 1.0;"/><text fill="#000000" font-family="sans-serif" font-size="11" lengthAdjust="spacingAndGlyphs" textLength="57" x="248" y="250.062">value() : T</text><ellipse cx="239" cy="260.5586" fill="#84BE84" rx="3" ry="3" style="stroke: #038048; stroke-width: 1.0;"/><text fill="#000000" font-family="sans-serif" font-size="11" lengthAdjust="spacingAndGlyphs" textLength="111" x="248" y="262.8667">set_value(value : T)</text><ellipse cx="239" cy="273.3633" fill="#84BE84" rx="3" ry="3" style="stroke: #038048; stroke-width: 1.0;"/><text fill="#000000" font-family="sans-serif" font-size="11" lengthAdjust="spacingAndGlyphs" textLength="115" x="248" y="275.6714">operator=(value : T)</text><line style="stroke: #A80036; stroke-width: 1.0; stroke-dasharray: 1.0,2.0;" x1="229" x2="581" y1="282.2656" y2="282.2656"/><ellipse cx="239" cy="294.168" fill="#84BE84" rx="3" ry="3" style="stroke: #038048; stroke-width: 1.0;"/><text fill="#000000" font-family="sans-serif" font-size="11" lengthAdjust="spacingAndGlyphs" textLength="158" x="248" y="296.4761">has_a_comment() : boolean</text><ellipse cx="239" cy="306.9727" fill="#84BE84" rx="3" ry="3" style="stroke: #038048; stroke-width: 1.0;"/><text fill="#000000" font-family="sans-serif" font-size="11" lengthAdjust="spacingAndGlyphs" textLength="118" x="248" y="309.2808">comment() : boolean</text><ellipse cx="239" cy="319.7773" fill="#84BE84" rx="3" ry="3" style="stroke: #038048; stroke-width: 1.0;"/><text fill="#000000" font-family="sans-serif" font-size="11" lengthAdjust="spacingAndGlyphs" textLength="183" x="248" y="322.0854">set_comment(comment : string)</text><text fill="#000000" font-family="sans-serif" font-size="11" lengthAdjust="spacingAndGlyphs" textLength="342" x="234" y="351.6948">«comparison»(a : header_entry, b : header_entry) : boolean</text><text fill="#000000" font-family="sans-serif" font-size="11" lengthAdjust="spacingAndGlyphs" textLength="234" x="234" y="364.4995">swap(a : header_entry, b : header_entry)</text><line style="stroke: #A80036; stroke-width: 1.5;" x1="229" x2="339" y1="335.082" y2="335.082"/><text fill="#000000" font-family="sans-serif" font-size="11" lengthAdjust="spacingAndGlyphs" textLength="132" x="339" y="338.3901">Non-member Functions</text><line style="stroke: #A80036; stroke-width: 1.5;" x1="471" x2="581" y1="335.082" y2="335.082"/><line style="stroke: #A80036; stroke-width: 1.0; stroke-dasharray: 1.0,2.0;" x1="229" x2="581" y1="371.0938" y2="371.0938"/><text fill="#000000" font-family="sans-serif" font-size="11" lengthAdjust="spacingAndGlyphs" textLength="230" x="234" y="385.3042">to_bytes(entry : header_entry) : byte[80]</text><text fill="#000000" font-family="sans-serif" font-size="11" lengthAdjust="spacingAndGlyphs" textLength="217" x="234" y="398.1089">extract_header_entry(bytes : byte[80])</text><!--class invalid_key--><rect fill="#FEFECE" filter="url(#fmqcdrjx3f80e)" height="130.7656" id="invalid_key" style="stroke: #A80036; stroke-width: 1.5;" width="366" x="22" y="544"/><ellipse cx="164.75" cy="562.9688" fill="#ADD1B2" rx="11" ry="11" style="stroke: #A80036; stroke-width: 1.0;"/><path d="M167.7188,568.6094 Q167.1406,568.9063 166.5,569.0469 Q165.8594,569.2031 165.1563,569.2031 Q162.6563,569.2031 161.3281,567.5625 Q160.0156,565.9063 160.0156,562.7813 Q160.0156,559.6563 161.3281,558 Q162.6563,556.3438 165.1563,556.3438 Q165.8594,556.3438 166.5,556.5 Q167.1563,556.6563 167.7188,556.9531 L167.7188,559.6719 Q167.0938,559.0938 166.5,558.8281 Q165.9063,558.5469 165.2813,558.5469 Q163.9375,558.5469 163.25,559.625 Q162.5625,560.6875 162.5625,562.7813 Q162.5625,564.875 163.25,565.9531 Q163.9375,567.0156 165.2813,567.0156 Q165.9063,567.0156 166.5,566.75 Q167.0938,566.4688 167.7188,565.8906 L167.7188,568.6094 Z "/><text fill="#000000" font-family="sans-serif" font-size="12" font-style="italic" lengthAdjust="spacingAndGlyphs" textLength="76" x="183.25" y="560.1387">«Exception»</text><text fill="#000000" font-family="sans-serif" font-size="12" lengthAdjust="spacingAndGlyphs" textLength="66" x="188.25" y="574.1074">invalid_key</text><line style="stroke: #A80036; stroke-width: 1.5;" x1="23" x2="387" y1="581.9375" y2="581.9375"/><rect fill="none" height="6" style="stroke: #C82930; stroke-width: 1.0;" width="6" x="30" y="590.8398"/><text fill="#000000" font-family="sans-serif" font-size="11" lengthAdjust="spacingAndGlyphs" textLength="164" x="42" y="596.1479">m_bad_string : invalid_string</text><line style="stroke: #A80036; stroke-width: 1.5;" x1="23" x2="387" y1="602.7422" y2="602.7422"/><ellipse cx="33" cy="614.6445" fill="#84BE84" rx="3" ry="3" style="stroke: #038048; stroke-width: 1.0;"/><text fill="#000000" font-family="sans-serif" font-size="11" lengthAdjust="spacingAndGlyphs" textLength="340" x="42" y="616.9526">«constructor»(bad_string : invalid_string, message : string)</text><ellipse cx="33" cy="627.4492" fill="#84BE84" rx="3" ry="3" style="stroke: #038048; stroke-width: 1.0;"/><text fill="#000000" font-family="sans-serif" font-size="11" lengthAdjust="spacingAndGlyphs" textLength="80" x="42" y="629.7573">what() : string</text><ellipse cx="33" cy="640.2539" fill="#84BE84" rx="3" ry="3" style="stroke: #038048; stroke-width: 1.0;"/><text fill="#000000" font-family="sans-serif" font-size="11" lengthAdjust="spacingAndGlyphs" textLength="72" x="42" y="642.562">key() : string</text><ellipse cx="33" cy="653.0586" fill="#84BE84" rx="3" ry="3" style="stroke: #038048; stroke-width: 1.0;"/><text fill="#000000" font-family="sans-serif" font-size="11" lengthAdjust="spacingAndGlyphs" textLength="155" x="42" y="655.3667">bad_character() : character</text><ellipse cx="33" cy="665.8633" fill="#84BE84" rx="3" ry="3" style="stroke: #038048; stroke-width: 1.0;"/><text fill="#000000" font-family="sans-serif" font-size="11" lengthAdjust="spacingAndGlyphs" textLength="177" x="42" y="668.1714">bad_character_index() : integer</text><!--class invalid_comment--><rect fill="#FEFECE" filter="url(#fmqcdrjx3f80e)" height="130.7656" id="invalid_comment" style="stroke: #A80036; stroke-width: 1.5;" width="366" x="423" y="544"/><ellipse cx="550.25" cy="562.9688" fill="#ADD1B2" rx="11" ry="11" style="stroke: #A80036; stroke-width: 1.0;"/><path d="M553.2188,568.6094 Q552.6406,568.9063 552,569.0469 Q551.3594,569.2031 550.6563,569.2031 Q548.1563,569.2031 546.8281,567.5625 Q545.5156,565.9063 545.5156,562.7813 Q545.5156,559.6563 546.8281,558 Q548.1563,556.3438 550.6563,556.3438 Q551.3594,556.3438 552,556.5 Q552.6563,556.6563 553.2188,556.9531 L553.2188,559.6719 Q552.5938,559.0938 552,558.8281 Q551.4063,558.5469 550.7813,558.5469 Q549.4375,558.5469 548.75,559.625 Q548.0625,560.6875 548.0625,562.7813 Q548.0625,564.875 548.75,565.9531 Q549.4375,567.0156 550.7813,567.0156 Q551.4063,567.0156 552,566.75 Q552.5938,566.4688 553.2188,565.8906 L553.2188,568.6094 Z "/><text fill="#000000" font-family="sans-serif" font-size="12" font-style="italic" lengthAdjust="spacingAndGlyphs" textLength="76" x="584.25" y="560.1387">«Exception»</text><text fill="#000000" font-family="sans-serif" font-size="12" lengthAdjust="spacingAndGlyphs" textLength="103" x="570.75" y="574.1074">invalid_comment</text><line style="stroke: #A80036; stroke-width: 1.5;" x1="424" x2="788" y1="581.9375" y2="581.9375"/><rect fill="none" height="6" style="stroke: #C82930; stroke-width: 1.0;" width="6" x="431" y="590.8398"/><text fill="#000000" font-family="sans-serif" font-size="11" lengthAdjust="spacingAndGlyphs" textLength="164" x="443" y="596.1479">m_bad_string : invalid_string</text><line style="stroke: #A80036; stroke-width: 1.5;" x1="424" x2="788" y1="602.7422" y2="602.7422"/><ellipse cx="434" cy="614.6445" fill="#84BE84" rx="3" ry="3" style="stroke: #038048; stroke-width: 1.0;"/><text fill="#000000" font-family="sans-serif" font-size="11" lengthAdjust="spacingAndGlyphs" textLength="340" x="443" y="616.9526">«constructor»(bad_string : invalid_string, message : string)</text><ellipse cx="434" cy="627.4492" fill="#84BE84" rx="3" ry="3" style="stroke: #038048; stroke-width: 1.0;"/><text fill="#000000" font-family="sans-serif" font-size="11" lengthAdjust="spacingAndGlyphs" textLength="80" x="443" y="629.7573">what() : string</text><ellipse cx="434" cy="640.2539" fill="#84BE84" rx="3" ry="3" style="stroke: #038048; stroke-width: 1.0;"/><text fill="#000000" font-family="sans-serif" font-size="11" lengthAdjust="spacingAndGlyphs" textLength="106" x="443" y="642.562">comment() : string</text><ellipse cx="434" cy="653.0586" fill="#84BE84" rx="3" ry="3" style="stroke: #038048; stroke-width: 1.0;"/><text fill="#000000" font-family="sans-serif" font-size="11" lengthAdjust="spacingAndGlyphs" textLength="155" x="443" y="655.3667">bad_character() : character</text><ellipse cx="434" cy="665.8633" fill="#84BE84" rx="3" ry="3" style="stroke: #038048; stroke-width: 1.0;"/><text fill="#000000" font-family="sans-serif" font-size="11" lengthAdjust="spacingAndGlyphs" textLength="177" x="443" y="668.1714">bad_character_index() : integer</text><!--class invalid_string--><rect fill="#FEFECE" filter="url(#fmqcdrjx3f80e)" height="65.6094" id="invalid_string" style="stroke: #A80036; stroke-width: 1.5;" width="212" x="261" y="839"/><ellipse cx="322.25" cy="855" fill="#ADD1B2" rx="11" ry="11" style="stroke: #A80036; stroke-width: 1.0;"/><path d="M325.2188,860.6406 Q324.6406,860.9375 324,861.0781 Q323.3594,861.2344 322.6563,861.2344 Q320.1563,861.2344 318.8281,859.5938 Q317.5156,857.9375 317.5156,854.8125 Q317.5156,851.6875 318.8281,850.0313 Q320.1563,848.375 322.6563,848.375 Q323.3594,848.375 324,848.5313 Q324.6563,848.6875 325.2188,848.9844 L325.2188,851.7031 Q324.5938,851.125 324,850.8594 Q323.4063,850.5781 322.7813,850.5781 Q321.4375,850.5781 320.75,851.6563 Q320.0625,852.7188 320.0625,854.8125 Q320.0625,856.9063 320.75,857.9844 Q321.4375,859.0469 322.7813,859.0469 Q323.4063,859.0469 324,858.7813 Q324.5938,858.5 325.2188,857.9219 L325.2188,860.6406 Z "/><text fill="#000000" font-family="sans-serif" font-size="12" lengthAdjust="spacingAndGlyphs" textLength="81" x="342.75" y="859.1543">invalid_string</text><line style="stroke: #A80036; stroke-width: 1.5;" x1="262" x2="472" y1="871" y2="871"/><ellipse cx="272" cy="882.9023" fill="none" rx="3" ry="3" style="stroke: #038048; stroke-width: 1.0;"/><text fill="#000000" font-family="sans-serif" font-size="11" lengthAdjust="spacingAndGlyphs" textLength="81" x="281" y="885.2104">m_key : string</text><ellipse cx="272" cy="895.707" fill="none" rx="3" ry="3" style="stroke: #038048; stroke-width: 1.0;"/><text fill="#000000" font-family="sans-serif" font-size="11" lengthAdjust="spacingAndGlyphs" textLength="186" x="281" y="898.0151">m_bad_character_index : integer</text><!--link invalid_key to invalid_argument--><path d="M345.6667,675.0546 C345.6667,714.4482 345.6667,757 345.6667,757 C345.6667,757 792.9818,757 792.9818,757 " fill="none" id="invalid_key-invalid_argument" style="stroke: #A80036; stroke-width: 1.0;"/><polygon fill="none" points="792.9818,749.9999,812.9818,757,792.9817,763.9999,792.9818,749.9999" style="stroke: #A80036; stroke-width: 1.0;"/><!--link invalid_key to invalid_string--><path d="M303.3333,688.0627 C303.3333,688.0627 303.3333,838.8197 303.3333,838.8197 " fill="none" id="invalid_key-invalid_string" style="stroke: #A80036; stroke-width: 1.0;"/><polygon fill="#A80036" points="303.3333,675.0627,299.3333,681.0627,303.3333,687.0627,307.3333,681.0627,303.3333,675.0627" style="stroke: #A80036; stroke-width: 1.0;"/><text fill="#000000" font-family="sans-serif" font-size="13" lengthAdjust="spacingAndGlyphs" textLength="8" x="282.0114" y="827.9292">1</text><!--link header_entry to invalid_key--><path d="M308,405.1799 C308,405.1799 308,538.9611 308,538.9611 " fill="none" id="header_entry-invalid_key" style="stroke: #A80036; stroke-width: 1.0;"/><polygon fill="#A80036" points="308,543.9611,312,534.9611,308,538.9611,304,534.9611,308,543.9611" style="stroke: #A80036; stroke-width: 1.0;"/><text fill="#000000" font-family="sans-serif" font-size="13" lengthAdjust="spacingAndGlyphs" textLength="67" x="268" y="479.0669">may throw</text><polygon fill="#000000" points="297,488.1328,300,494.1328,303,488.1328,297,488.1328" style="stroke: #000000; stroke-width: 1.0;"/><text fill="#000000" font-family="sans-serif" font-size="13" lengthAdjust="spacingAndGlyphs" textLength="8" x="310.8281" y="533.0594">1</text><!--link invalid_comment to invalid_argument--><path d="M789.3282,610 C840.3058,610 882,610 882,610 C882,610 882,720.9886 882,720.9886 " fill="none" id="invalid_comment-invalid_argument" style="stroke: #A80036; stroke-width: 1.0;"/><polygon fill="none" points="889.0001,720.9886,882,740.9886,875.0001,720.9886,889.0001,720.9886" style="stroke: #A80036; stroke-width: 1.0;"/><!--link invalid_comment to invalid_string--><path d="M448,688.0627 C448,688.0627 448,838.8197 448,838.8197 " fill="none" id="invalid_comment-invalid_string" style="stroke: #A80036; stroke-width: 1.0;"/><polygon fill="#A80036" points="448,675.0627,444,681.0627,448,687.0627,452,681.0627,448,675.0627" style="stroke: #A80036; stroke-width: 1.0;"/><text fill="#000000" font-family="sans-serif" font-size="13" lengthAdjust="spacingAndGlyphs" textLength="8" x="455.1594" y="827.9292">1</text><!--link header_entry to invalid_comment--><path d="M502.5,405.1799 C502.5,405.1799 502.5,538.9611 502.5,538.9611 " fill="none" id="header_entry-invalid_comment" style="stroke: #A80036; stroke-width: 1.0;"/><polygon fill="#A80036" points="502.5,543.9611,506.5,534.9611,502.5,538.9611,498.5,534.9611,502.5,543.9611" style="stroke: #A80036; stroke-width: 1.0;"/><text fill="#000000" font-family="sans-serif" font-size="13" lengthAdjust="spacingAndGlyphs" textLength="67" x="544" y="479.0669">may throw</text><polygon fill="#000000" points="573,488.1328,576,494.1328,579,488.1328,573,488.1328" style="stroke: #000000; stroke-width: 1.0;"/><text fill="#000000" font-family="sans-serif" font-size="13" lengthAdjust="spacingAndGlyphs" textLength="8" x="482.7422" y="533.0594">1</text><!--
@startuml@

hide empty members
skinparam linetype ortho

package std <<frame>> {
  class invalid_argument
}

package fits <<frame>> {
  class header_entry {
    - m_key : string
    - m_value : variant[0..1]
    - m_comment: string[0..1]
    __ Member Functions __
    + <<constructor>>(key : string)
    + <<constructor>>(key : string, value : T)
    + <<constructor>>(key : string, value : T, comment : string)
    + <<assignment>>(source : header_entry)
    + swap(other : header_entry)
    ..
    + key() : string
    ..
    + has_a_value() : boolean
    + value() : T
    + set_value(value : T)
    + operator=(value : T)
    ..
    + has_a_comment() : boolean
    + comment() : boolean
    + set_comment(comment : string)
    __ Non-member Functions __
    <<comparison>>(a : header_entry, b : header_entry) : boolean
    swap(a : header_entry, b : header_entry)
    ..
    to_bytes(entry : header_entry) : byte[80]
    extract_header_entry(bytes : byte[80])
  }

  package detail <<frame>> {
    class invalid_string {
      + m_key : string
      + m_bad_character_index : integer
    }
  }

  class invalid_key <<Exception>> {
    - m_bad_string : invalid_string
    ____
    + <<constructor>>(bad_string : invalid_string, message : string)
    + what() : string
    + key() : string
    + bad_character() : character
    + bad_character_index() : integer
  }

  class invalid_comment <<Exception>> {
    - m_bad_string : invalid_string
    ____
    + <<constructor>>(bad_string : invalid_string, message : string)
    + what() : string
    + comment() : string
    + bad_character() : character
    + bad_character_index() : integer
  }
}

invalid_key - -|> invalid_argument
invalid_key *- - "1" invalid_string
header_entry - -> "1" invalid_key : may throw >

invalid_comment - -|> invalid_argument
invalid_comment *- - "1" invalid_string
header_entry - -> "1" invalid_comment : may throw >

@enduml@

PlantUML version 1.2018.13(Mon Nov 26 10:11:51 MST 2018)
(GPL source distribution)
Java Runtime: OpenJDK Runtime Environment
JVM: OpenJDK 64-Bit Server VM
Java Version: 11.0.4+11-post-Ubuntu-1ubuntu219.04
Operating System: Linux
OS Version: 5.0.0-32-generic
Default Encoding: UTF-8
Language: en
Country: US
--></g></svg>